<?xml version="1.0" encoding="iso-8859-1"?>
<!-- Generator: Adobe Illustrator 19.0.0, SVG Export Plug-In . SVG Version: 6.00 Build 0)  -->
<svg version="1.1" id="Capa_1" xmlns="http://www.w3.org/2000/svg" xmlns:xlink="http://www.w3.org/1999/xlink" x="0px" y="0px"
	 viewBox="0 0 496 496" style="enable-background:new 0 0 496 496;" xml:space="preserve">
<path style="fill:#48C397;" d="M288,321.352V296h-80v25.352c0,28.936-15.184,55.76-40,70.648h160
	C303.184,377.112,288,350.296,288,321.352z"/>
<path style="fill:#0FA196;" d="M208,296v25.352c0,1.544-0.216,3.056-0.296,4.584c12.248,6.48,26.024,10.064,40.224,10.064
	c14.264,0,28.088-3.608,40.368-10.136c-0.088-1.504-0.296-2.992-0.296-4.512V296H208z"/>
<g>
	<path style="fill:#48C397;" d="M445.744,424.112c-8.408-29.432-32.872-51.488-63.016-56.808L296,352h-96l-86.728,15.304
		c-30.144,5.32-54.608,27.376-63.016,56.808L32,488h216h216L445.744,424.112z"/>
	<path style="fill:#48C397;" d="M247.928,312L247.928,312c-20.04,0-38.848-9.672-50.504-25.968l-53.56-74.896
		C128.344,189.424,120,163.4,120,136.712v-0.776C120,65.28,177.28,8,247.936,8h0.128C318.72,8,376,65.28,376,135.936l0,0
		c0,26.528-8.248,52.4-23.6,74.04l-53.84,75.872C286.92,302.248,268.048,312,247.928,312z"/>
</g>
<path style="fill:#0FA196;" d="M336,128c0,73.232-17.856,122.504-31.792,149.88l48.192-67.912c15.352-21.632,23.6-47.512,23.6-74.04
	C376,65.28,318.72,8,248.064,8h-0.128C247.936,8,336,48,336,128z"/>
<g>
	<path style="fill:#FCD770;" d="M206.52,129.48c-17.048-17.048-39.16-22.576-49.384-12.344s-4.704,32.336,12.344,49.384
		s39.16,22.576,49.384,12.344S223.568,146.528,206.52,129.48z"/>
	<path style="fill:#FCD770;" d="M289.48,129.48c17.048-17.048,39.16-22.576,49.384-12.344c10.224,10.224,4.704,32.336-12.344,49.384
		s-39.16,22.576-49.384,12.344S272.432,146.528,289.48,129.48z"/>
</g>
<path d="M247.936,48V32c-5.792,0-11.592,0.488-17.264,1.432l2.656,15.784C238.12,48.408,243.04,48,247.936,48z"/>
<path d="M218.672,53.008l-5.344-15.08c-23.216,8.24-42.84,24.592-55.256,46.064L171.912,92
	C182.432,73.832,199.04,59.984,218.672,53.008z"/>
<path d="M224.52,184.52c13.552-13.552,8.136-40.216-12.352-60.696c-9.248-9.256-20.248-15.832-30.96-18.504
	c-12.168-3.032-22.728-0.848-29.736,6.168c-13.552,13.552-8.136,40.216,12.352,60.696c9.248,9.256,20.248,15.832,30.96,18.504
	c3.576,0.888,7.016,1.336,10.264,1.336C212.856,192.016,219.576,189.472,224.52,184.52z M198.672,175.16
	c-7.832-1.96-16.408-7.168-23.528-14.296c-14.856-14.856-18.432-31.992-12.352-38.072c1.84-1.84,4.728-2.792,8.264-2.792
	c1.912,0,4.032,0.28,6.272,0.832c7.832,1.96,16.408,7.168,23.528,14.296c14.856,14.856,18.432,31.992,12.352,38.072
	C210.368,176.048,205.064,176.752,198.672,175.16z"/>
<path d="M290.944,192.016c3.248,0,6.688-0.44,10.264-1.336c10.712-2.68,21.712-9.256,30.96-18.504
	c20.488-20.48,25.904-47.144,12.352-60.696c-7-7.008-17.568-9.2-29.736-6.168c-10.712,2.68-21.712,9.256-30.96,18.504
	c-20.488,20.48-25.904,47.144-12.352,60.696C276.424,189.472,283.144,192.016,290.944,192.016z M295.144,135.136
	c7.128-7.128,15.704-12.336,23.528-14.296c2.24-0.56,4.352-0.832,6.272-0.832c3.536,0,6.424,0.944,8.264,2.792
	c6.08,6.08,2.504,23.208-12.352,38.072c-7.128,7.128-15.704,12.336-23.528,14.296c-6.368,1.592-11.696,0.888-14.536-1.952
	C276.712,167.128,280.28,150,295.144,135.136z"/>
<rect x="240" y="240" width="16" height="16"/>
<path d="M453.44,421.912c-9.184-32.152-36.392-56.672-69.32-62.488l-84.2-14.856c-2.464-7.424-3.92-15.224-3.92-23.216v-20.608
	c3.304-3.12,6.408-6.496,9.088-10.272L358.92,214.6c16.408-23.12,25.08-50.32,25.08-78.664C384,60.984,323.016,0,247.936,0
	C172.984,0,112,60.984,112,136.712c0,28.528,8.768,55.864,25.36,79.072l53.56,74.896c2.68,3.744,5.776,7.096,9.08,10.2v20.472
	c0,7.992-1.448,15.792-3.912,23.216l-84.2,14.856c-32.928,5.816-60.136,30.336-69.32,62.488L21.392,496h453.216L453.44,421.912z
	 M150.376,206.48C135.736,186.008,128,161.88,128,135.936C128,69.8,181.808,16,248.064,16C314.192,16,368,69.8,368,135.936
	c0,25.008-7.648,49.008-22.128,69.408l-53.832,75.864C281.904,295.48,265.424,304,247.928,304c-17.416,0-33.856-8.456-43.992-22.624
	L150.376,206.48z M382.944,480l-7.016-49.136l-15.84,2.264L366.776,480H129.224l6.696-46.864l-15.84-2.264L113.056,480H42.608
	l15.344-53.696c7.504-26.304,29.776-46.368,56.712-51.12l72.784-12.84c-6.04,9.12-13.952,17.032-23.56,22.8l8.232,13.72
	c27.064-16.248,43.88-45.952,43.88-77.512v-9.072c5.056,2.592,10.432,4.536,16,5.84v19.232c0,12.12-3.008,24.192-8.688,34.896
	l14.128,7.504c6.912-13.008,10.56-27.672,10.56-42.4V320c11.272-0.008,22.224-2.752,32-7.792v9.144
	c0,31.56,16.816,61.264,43.88,77.504l8.232-13.72c-9.616-5.768-17.528-13.68-23.56-22.8l72.784,12.84
	c26.936,4.752,49.2,24.824,56.712,51.128L453.392,480H382.944z"/>
<rect x="392" y="400" width="16" height="16"/>
<rect x="320" y="448" width="16" height="16"/>
<rect x="200" y="424" width="16" height="16"/>
<rect x="72" y="448" width="16" height="16"/>
<rect x="104" y="392" width="16" height="16"/>
<rect x="272" y="408" width="16" height="16"/>
<g>
</g>
<g>
</g>
<g>
</g>
<g>
</g>
<g>
</g>
<g>
</g>
<g>
</g>
<g>
</g>
<g>
</g>
<g>
</g>
<g>
</g>
<g>
</g>
<g>
</g>
<g>
</g>
<g>
</g>
</svg>
