<?xml version="1.0" encoding="iso-8859-1"?>
<!-- Generator: Adobe Illustrator 19.0.0, SVG Export Plug-In . SVG Version: 6.00 Build 0)  -->
<svg version="1.1" id="Layer_1" xmlns="http://www.w3.org/2000/svg" xmlns:xlink="http://www.w3.org/1999/xlink" x="0px" y="0px"
	 viewBox="0 0 512 512" style="enable-background:new 0 0 512 512;" xml:space="preserve">
<path style="fill:#90C8EC;" d="M190.01,503.916h-54.559c-11.287,0-20.438-9.15-20.438-20.438v-2.27
	c0-11.288,9.151-20.438,20.438-20.438H376.55c11.287,0,20.438,9.15,20.438,20.438v2.27c0,11.288-9.151,20.438-20.438,20.438H216.96"
	/>
<path style="fill:#3A5D74;" d="M329.114,252.982h-20.966c-10.653,17.679-30.002,29.521-52.147,29.521s-41.495-11.842-52.147-29.521
	h-23.926c-23.922,0-43.316,19.391-43.316,43.313V460.77h235.814V296.295C372.426,272.373,353.036,252.982,329.114,252.982z"/>
<path style="fill:#59C384;" d="M381.504,133.587C381.504,64.273,325.317,8.084,256,8.084c-69.312,0-125.504,56.188-125.504,125.503
	c0,49.278,28.406,91.914,69.734,112.45c9.407,21.465,30.832,36.466,55.768,36.466c24.939,0,46.362-15.001,55.772-36.466
	C353.097,225.501,381.504,182.865,381.504,133.587z"/>
<g style="opacity:0.2;">
	<path style="fill:#231F20;" d="M272.438,263.101c-24.937,0-46.362-15.001-55.768-36.466
		c-41.329-20.536-69.734-63.172-69.734-112.45c0-26.342,8.122-50.782,21.988-70.969c-23.688,22.828-38.426,54.877-38.426,90.371
		c0,49.278,28.406,91.914,69.734,112.45c9.407,21.465,30.832,36.466,55.768,36.466c23.206,0,43.364-12.993,53.636-32.093
		C299.35,258.365,286.449,263.101,272.438,263.101z"/>
</g>
<g>
	<path style="fill:#3A5D74;" d="M335.354,111.576c-12.783-9.967-33.887-4.282-47.129,12.703
		c-13.244,16.984-13.615,38.834-0.83,48.803c12.783,9.969,33.885,4.282,47.127-12.701
		C347.769,143.397,348.139,121.546,335.354,111.576z"/>
	
		<ellipse transform="matrix(-0.7886 0.6149 -0.6149 -0.7886 446.3766 131.2049)" style="fill:#3A5D74;" cx="200.635" cy="142.332" rx="29.351" ry="38.998"/>
</g>
<g style="opacity:0.2;">
	<path style="fill:#231F20;" d="M140.882,483.478v-2.27c0-11.288,9.151-20.438,20.438-20.438h-25.869
		c-11.287,0-20.438,9.15-20.438,20.438v2.27c0,11.288,9.151,20.438,20.438,20.438h25.869
		C150.034,503.916,140.882,494.766,140.882,483.478z"/>
</g>
<g style="opacity:0.2;">
	<path style="fill:#231F20;" d="M203.882,253.03c-0.009-0.016-0.019-0.032-0.029-0.049h-23.926
		c-23.922,0-43.316,19.391-43.316,43.313V460.77h25.869V296.295C162.48,273.016,180.849,254.033,203.882,253.03z"/>
</g>
<g style="opacity:0.2;">
	<path style="fill:#231F20;" d="M313.266,173.082c-12.785-9.968-12.415-31.818,0.83-48.803c5.242-6.723,11.716-11.667,18.417-14.58
		c-12.898-7.219-31.983-1.201-44.286,14.58c-13.244,16.984-13.615,38.834-0.83,48.803c7.724,6.024,18.483,6.324,28.712,1.878
		C315.125,174.408,314.172,173.788,313.266,173.082z"/>
</g>
<g style="opacity:0.2;">
	<path style="fill:#231F20;" d="M203.347,160.381c-13.242-16.984-13.615-38.835-0.831-48.805c0.907-0.707,1.859-1.326,2.845-1.877
		c-10.229-4.445-20.988-4.146-28.714,1.877c-12.783,9.969-12.411,31.821,0.831,48.805c12.303,15.779,31.385,21.798,44.286,14.579
		C215.063,172.047,208.59,167.103,203.347,160.381z"/>
</g>
<g>
	<path style="fill:#231F20;" d="M282.425,179.455c5.553,4.332,12.455,6.623,19.956,6.623c0.002,0,0.003,0,0.003,0
		c13.996,0,28.396-7.748,38.513-20.726c7.478-9.589,11.699-20.907,11.886-31.867c0.202-11.818-4.223-21.863-12.458-28.285
		c-5.554-4.331-12.456-6.62-19.957-6.62c-14,0-28.4,7.749-38.517,20.727c-7.478,9.589-11.698,20.907-11.884,31.866
		C269.766,162.992,274.191,173.037,282.425,179.455z M294.602,129.249c6.973-8.944,16.846-14.501,25.767-14.501
		c3.92,0,7.29,1.078,10.014,3.202c4.134,3.223,6.348,8.641,6.235,15.259c-0.127,7.475-3.135,15.36-8.47,22.199
		c-6.974,8.944-16.845,14.5-25.763,14.5h-0.002c-3.92,0-7.29-1.078-10.015-3.203c-4.133-3.222-6.347-8.641-6.233-15.258
		C286.26,143.973,289.266,136.09,294.602,129.249z"/>
	<path style="fill:#231F20;" d="M209.622,186.078c7.501,0,14.402-2.289,19.959-6.622c16.277-12.693,16.534-39.676,0.571-60.149
		c-10.12-12.979-24.519-20.728-38.517-20.728c-7.501,0-14.402,2.289-19.959,6.621c-16.277,12.694-16.534,39.678-0.572,60.151
		C181.222,178.329,195.621,186.078,209.622,186.078L209.622,186.078z M183.854,155.41c-10.304-13.215-11.328-30.369-2.237-37.458
		c2.726-2.126,6.095-3.203,10.017-3.203c8.919,0,18.794,5.557,25.767,14.501c10.304,13.215,11.328,30.368,2.237,37.457
		c-2.726,2.126-6.097,3.203-10.018,3.203C200.7,169.91,190.827,164.354,183.854,155.41z"/>
	<path style="fill:#231F20;" d="M226.696,219.907c-1.963,4.011-0.303,8.852,3.707,10.815l22.044,10.788
		c1.123,0.55,2.339,0.822,3.554,0.822c1.374,0,2.746-0.35,3.977-1.047l19.082-10.788c3.887-2.197,5.257-7.129,3.06-11.016
		c-2.199-3.887-7.129-5.257-11.016-3.059l-15.376,8.691l-18.219-8.915C233.495,214.235,228.656,215.896,226.696,219.907z"/>
	<path style="fill:#231F20;" d="M380.51,452.966V296.294c0-28.1-22.669-50.992-50.678-51.379c15.652-10.393,29.008-24,39.135-40.004
		c13.491-21.319,20.621-45.984,20.621-71.326C389.588,59.927,329.661,0,256,0S122.413,59.927,122.413,133.587
		c0,25.343,7.13,50.008,20.622,71.326c10.121,15.995,23.469,29.595,39.111,39.986h-2.22c-28.342,0-51.4,23.057-51.4,51.397V453.54
		c-12.391,3.102-21.598,14.328-21.598,27.667v2.27c0,15.728,12.795,28.522,28.522,28.522h54.559c4.466,0,8.084-3.62,8.084-8.084
		c0-4.465-3.618-8.084-8.084-8.084H135.45c-6.811,0-12.354-5.543-12.354-12.354v-2.27c0-6.811,5.543-12.354,12.354-12.354h1.16
		h235.814h4.124c6.811,0,12.354,5.543,12.354,12.354v2.27c0,6.811-5.543,12.354-12.354,12.354H216.96
		c-4.466,0-8.084,3.62-8.084,8.084c0,4.465,3.618,8.084,8.084,8.084h159.59c15.728,0,28.522-12.795,28.522-28.522v-2.27
		C405.072,466.824,394.369,454.901,380.51,452.966z M138.581,133.587c0-64.745,52.675-117.418,117.419-117.418
		S373.42,68.842,373.42,133.587c0,44.898-25,85.212-65.244,105.211c-1.698,0.844-3.045,2.257-3.806,3.994
		c-0.876,1.998-1.872,3.918-2.967,5.764c-0.057,0.087-0.124,0.166-0.178,0.255c-2.333,3.871-5.095,7.356-8.195,10.43
		c-0.203,0.199-0.403,0.401-0.609,0.597c-0.535,0.513-1.084,1.009-1.638,1.497c-6.531,5.718-14.418,9.781-22.978,11.745
		c-0.146,0.033-0.29,0.068-0.435,0.1c-0.573,0.126-1.15,0.247-1.729,0.354c-0.719,0.132-1.443,0.25-2.171,0.352
		c-0.372,0.053-0.746,0.1-1.121,0.146c-0.881,0.105-1.763,0.196-2.655,0.257c-0.198,0.014-0.398,0.022-0.596,0.033
		c-1.026,0.059-2.058,0.099-3.096,0.099c-1.039,0-2.071-0.041-3.098-0.099c-0.197-0.012-0.396-0.019-0.593-0.032
		c-0.891-0.061-1.776-0.152-2.658-0.257c-0.373-0.045-0.745-0.092-1.116-0.144c-0.733-0.102-1.461-0.222-2.186-0.355
		c-0.573-0.107-1.144-0.225-1.713-0.35c-0.151-0.032-0.301-0.069-0.452-0.103c-8.556-1.966-16.439-6.028-22.967-11.744
		c-0.553-0.487-1.101-0.981-1.635-1.494c-0.209-0.199-0.413-0.404-0.618-0.607c-3.097-3.073-5.858-6.556-8.19-10.424
		c-0.049-0.081-0.11-0.153-0.161-0.232c-1.101-1.852-2.101-3.779-2.98-5.786c-0.761-1.736-2.108-3.151-3.806-3.996
		C163.583,218.799,138.581,178.484,138.581,133.587z M323.108,452.686V332.463c0-4.465-3.618-8.084-8.084-8.084
		s-8.084,3.62-8.084,8.084v120.223H205.063V332.463c0-4.465-3.618-8.084-8.084-8.084c-4.466,0-8.084,3.62-8.084,8.084v120.223h-44.2
		V296.295c0-19.425,15.805-35.229,35.232-35.229h19.517c1.496,2.145,3.106,4.192,4.819,6.136c0.174,0.198,0.345,0.398,0.52,0.594
		c0.132,0.146,0.264,0.288,0.397,0.432c11.794,12.953,27.992,20.885,45.717,22.167c0.101,0.008,0.202,0.016,0.303,0.023
		c0.654,0.044,1.31,0.079,1.967,0.105c0.16,0.007,0.318,0.016,0.478,0.022c0.783,0.026,1.567,0.042,2.354,0.042
		s1.572-0.016,2.354-0.042c0.16-0.005,0.318-0.015,0.476-0.022c0.659-0.026,1.315-0.061,1.969-0.106
		c0.1-0.008,0.201-0.015,0.3-0.023c17.69-1.279,33.86-9.184,45.649-22.091c0.168-0.183,0.338-0.364,0.504-0.55
		c0.119-0.133,0.234-0.267,0.351-0.401c1.764-1.99,3.419-4.087,4.954-6.288h16.554c19.425,0,35.228,15.803,35.228,35.229v156.391
		h-41.23V452.686z"/>
</g>
<g>
</g>
<g>
</g>
<g>
</g>
<g>
</g>
<g>
</g>
<g>
</g>
<g>
</g>
<g>
</g>
<g>
</g>
<g>
</g>
<g>
</g>
<g>
</g>
<g>
</g>
<g>
</g>
<g>
</g>
</svg>
