<?xml version="1.0" standalone="no"?>
<!DOCTYPE svg PUBLIC "-//W3C//DTD SVG 20010904//EN"
 "http://www.w3.org/TR/2001/REC-SVG-20010904/DTD/svg10.dtd">
<svg version="1.0" xmlns="http://www.w3.org/2000/svg"
 width="981.000000pt" height="1280.000000pt" viewBox="0 0 981.000000 1280.000000"
 preserveAspectRatio="xMidYMid meet">
<metadata>
Created by potrace 1.15, written by Peter Selinger 2001-2017
</metadata>
<g transform="translate(0.000000,1280.000000) scale(0.100000,-0.100000)"
fill="rgb(94, 25, 12)" stroke="none">
<path d="M4035 12793 c-97 -8 -173 -27 -288 -70 -182 -68 -278 -92 -413 -102
-143 -11 -161 -19 -286 -119 -48 -39 -120 -89 -160 -113 -134 -77 -236 -149
-320 -227 -93 -86 -166 -144 -279 -220 -85 -57 -145 -122 -208 -227 -71 -118
-269 -522 -276 -564 -6 -37 -42 -104 -129 -246 -20 -33 -46 -91 -57 -130 -12
-38 -49 -140 -84 -225 -65 -160 -95 -245 -210 -580 -92 -266 -117 -323 -185
-411 -128 -165 -238 -373 -313 -594 -79 -231 -126 -314 -312 -550 -57 -72
-119 -159 -138 -195 -45 -84 -99 -231 -126 -345 -38 -160 -54 -207 -93 -267
-76 -118 -113 -223 -139 -393 -18 -115 -18 -550 -1 -890 11 -242 20 -548 42
-1500 22 -934 35 -1153 85 -1358 51 -209 55 -260 65 -732 5 -236 14 -456 20
-487 6 -32 22 -81 35 -111 19 -41 27 -81 34 -177 11 -148 26 -194 137 -413
118 -236 141 -264 309 -364 127 -76 235 -156 425 -313 157 -130 244 -195 390
-290 58 -37 145 -104 193 -148 67 -60 102 -85 148 -102 34 -12 141 -61 238
-109 337 -166 654 -242 889 -213 71 9 143 9 267 2 213 -12 379 -1 490 33 127
40 206 47 620 57 419 10 575 21 752 51 148 25 226 52 293 102 30 23 77 47 105
54 43 12 350 35 595 45 75 3 76 4 385 159 431 217 427 215 785 260 389 48 507
75 720 163 47 20 95 36 107 36 12 0 45 20 74 45 29 25 92 65 140 90 48 25 122
73 165 108 112 91 350 317 511 487 208 218 223 240 249 366 9 46 32 110 55
154 35 67 41 88 53 198 14 124 14 126 87 263 11 19 26 72 34 118 15 86 62 206
140 357 121 235 145 428 148 1166 2 492 5 466 -70 668 -40 108 -139 311 -203
415 -23 38 -74 128 -112 200 -81 151 -138 229 -280 380 -127 136 -193 218
-290 360 -175 255 -408 647 -453 763 -14 37 -44 92 -66 122 -119 166 -118 163
-160 490 -35 280 -55 388 -98 515 -16 50 -39 145 -50 212 -23 135 -43 194
-105 303 -44 77 -63 121 -140 322 -60 157 -61 166 -32 276 17 64 22 102 16
121 -4 15 -49 83 -99 150 -128 172 -141 196 -190 366 -11 39 -41 104 -65 145
-25 41 -62 125 -82 185 -20 61 -56 157 -79 215 -48 118 -58 158 -57 212 4 95
-156 477 -363 868 -152 286 -192 348 -259 397 -142 104 -409 253 -566 314 -94
37 -186 96 -337 216 -233 186 -362 231 -733 253 -150 9 -799 11 -895 3z"/>
</g>
</svg>
