<svg xmlns="http://www.w3.org/2000/svg" enable-background="new 0 0 100 100" viewBox="0 0 100 100"><path d="M68.855 58.84c.563.044 1.083.271 1.505.654.383.348.865.52 1.345.52.544 0 1.086-.221 1.48-.655.743-.817.683-2.082-.135-2.825-1.068-.971-2.447-1.568-3.88-1.682-1.109-.087-2.064.735-2.151 1.836C66.933 57.79 67.754 58.753 68.855 58.84zM58.607 58.832h4.431c1.104 0 2-.896 2-2s-.896-2-2-2h-4.431c-1.104 0-2 .896-2 2S57.503 58.832 58.607 58.832zM50 67.713c-.838 0-1.659.143-2.441.425-1.039.375-1.578 1.521-1.203 2.56.375 1.039 1.521 1.578 2.56 1.203.346-.125.71-.188 1.084-.188 1.771 0 3.212 1.441 3.212 3.212 0 .486-.106.953-.315 1.387-.48.995-.063 2.19.932 2.67.28.135.576.199.868.199.744 0 1.458-.417 1.803-1.131.473-.98.713-2.032.713-3.125C57.212 70.948 53.977 67.713 50 67.713zM50 78.137c-1.771 0-3.212-1.441-3.212-3.212 0-.137.009-.272.025-.405.137-1.096-.64-2.096-1.736-2.233-1.094-.137-2.096.64-2.233 1.736-.037.296-.057.597-.057.902 0 3.977 3.235 7.212 7.212 7.212 1.104 0 2-.896 2-2S51.104 78.137 50 78.137zM80.49 67.713c-1.218 0-2.423.311-3.485.899-.966.535-1.316 1.752-.781 2.718.535.966 1.751 1.317 2.718.781.471-.26 1.005-.398 1.547-.398 1.771 0 3.212 1.441 3.212 3.212 0 .237-.026.473-.077.702-.24 1.078.439 2.146 1.518 2.387.146.033.292.048.437.048.917 0 1.743-.634 1.95-1.566.114-.513.172-1.042.172-1.571C87.703 70.948 84.467 67.713 80.49 67.713zM81.131 78.073c-.207.042-.423.064-.641.064-1.754 0-3.195-1.426-3.212-3.18-.011-1.098-.904-1.98-2-1.98-.007 0-.014 0-.021 0-1.104.011-1.991.916-1.98 2.02.039 3.937 3.274 7.14 7.212 7.14.487 0 .973-.049 1.443-.145 1.082-.222 1.78-1.278 1.559-2.36C83.271 78.55 82.217 77.852 81.131 78.073z"/><path d="M19.51,89.435c7.319,0,13.373-5.452,14.354-12.505h1.781C36.627,83.982,42.681,89.435,50,89.435
		s13.373-5.452,14.355-12.505h1.781c0.981,7.053,7.035,12.505,14.354,12.505c8,0,14.51-6.509,14.51-14.509
		c0-7.368-5.526-13.458-12.648-14.376c-0.918-6.749-6.704-11.972-13.701-11.972h-6.34l-3.271-9.093
		c2.393-1.947,3.024-5.424,1.348-8.106c-0.232-0.371-0.506-0.703-0.8-1.01l7.2-6.609c0.646,0.352,1.353,0.595,2.103,0.701
		c0.295,0.042,0.589,0.063,0.879,0.063c0.576,0,1.129-0.104,1.663-0.256l5.629,8.188c-2.105,2.676-2.251,6.533-0.112,9.38
		c0.393,0.523,0.993,0.799,1.601,0.799c0.418,0,0.84-0.13,1.2-0.401c0.883-0.664,1.062-1.917,0.398-2.8
		c-1.225-1.63-0.895-3.953,0.735-5.178c0.79-0.593,1.76-0.844,2.741-0.705c0.94,0.134,1.769,0.618,2.36,1.356
		c0.019,0.055,0.029,0.111,0.053,0.166l1.405,3.226c0.328,0.753,1.063,1.202,1.834,1.202c0.267,0,0.538-0.054,0.797-0.167
		c1.013-0.441,1.477-1.619,1.035-2.632l-1.405-3.226c-0.033-0.075-0.077-0.14-0.117-0.209c-0.065-0.239-0.171-0.47-0.329-0.679
		c-2.128-2.83-5.843-3.77-8.987-2.524l-5.54-8.058c0.606-0.811,1.035-1.766,1.185-2.821c0.233-1.643-0.187-3.279-1.185-4.606
		c-0.997-1.327-2.451-2.186-4.094-2.418c-3.431-0.49-6.552,1.947-7.024,5.278c-0.166,1.166,0.004,2.326,0.47,3.377l-8.369,7.682
		c-0.198-0.019-0.396-0.038-0.598-0.038c-1.163,0-2.3,0.327-3.289,0.945c-1.408,0.879-2.388,2.254-2.762,3.872
		c-0.373,1.617-0.094,3.283,0.786,4.69c1.143,1.829,3.114,2.92,5.272,2.92c0,0,0,0,0,0c0.056,0,0.11-0.01,0.166-0.012l2.771,7.704
		H31.352c-1.683,0-3.289,0.317-4.782,0.869l-3.268-6.812c1.4-1.132,2.299-2.861,2.299-4.798c0-1.089-0.286-2.112-0.784-3.001
		l1.862-1.867c2.504,1.899,5.534,2.941,8.731,2.941c3.874,0,7.516-1.509,10.255-4.248c0.375-0.375,0.586-0.884,0.586-1.414
		s-0.211-1.039-0.586-1.414l-3.006-3.006v-8.842l2.362-2.362c0.781-0.781,0.781-2.047,0-2.828c-0.78-0.781-2.048-0.781-2.828,0
		l-2.362,2.362h-8.842l-3.006-3.006c-0.75-0.75-2.078-0.75-2.828,0c-5.174,5.174-5.599,13.309-1.304,18.988l-2.012,2.017
		c-0.74-0.315-1.554-0.49-2.408-0.49c-3.402,0-6.17,2.768-6.17,6.169c0,3.402,2.768,6.17,6.17,6.17c0.031,0,0.06-0.004,0.091-0.005
		l3.533,7.365c-2.886,2.172-4.893,5.438-5.403,9.182C10.527,61.465,5,67.556,5,74.925C5,82.926,11.509,89.435,19.51,89.435z
		 M67.573,17.998c0.154-1.084,1.094-1.903,2.187-1.903c0.104,0,0.21,0.008,0.316,0.022c0.585,0.083,1.103,0.389,1.458,0.862
		c0.355,0.473,0.505,1.055,0.422,1.641c-0.168,1.189-1.277,2.054-2.502,1.88c-0.585-0.083-1.103-0.389-1.458-0.862
		C67.64,19.166,67.49,18.583,67.573,17.998z M53.243,35.844c-0.313-0.501-0.413-1.095-0.28-1.67
		c0.133-0.576,0.482-1.066,0.984-1.379c0.353-0.22,0.757-0.337,1.169-0.337c0.77,0,1.473,0.389,1.88,1.041
		c0.646,1.035,0.331,2.403-0.704,3.05c-0.353,0.221-0.757,0.337-1.169,0.337c0,0,0,0,0,0C54.354,36.885,53.65,36.496,53.243,35.844z
		 M38.659,18.157v3.67l-3.67-3.67H38.659z M26.704,15.529l1.745,1.745c0.144,0.214,0.329,0.398,0.542,0.542l10.009,10.009
		c0.144,0.213,0.328,0.397,0.541,0.541l1.748,1.748c-1.722,1.168-3.752,1.796-5.879,1.796c-2.805,0-5.443-1.093-7.427-3.076
		C24.371,25.222,23.945,19.612,26.704,15.529z M17.26,37.836c0-1.196,0.974-2.169,2.17-2.169s2.17,0.973,2.17,2.169
		s-0.974,2.17-2.17,2.17S17.26,39.033,17.26,37.836z M50,85.435c-5.79,0-10.5-4.706-10.509-10.494c0-0.004,0.001-0.008,0.001-0.012
		c0-0.005-0.001-0.009-0.001-0.014c0.006-5.79,4.718-10.499,10.509-10.499c5.795,0,10.51,4.715,10.51,10.51S55.795,85.435,50,85.435
		z M91,74.925c0,5.795-4.715,10.509-10.51,10.509c-5.786,0-10.494-4.701-10.508-10.484c0-0.007,0.002-0.014,0.002-0.021
		c0-0.008-0.002-0.016-0.002-0.024c0.011-5.778,4.707-10.476,10.485-10.489c0.009,0,0.018,0.003,0.027,0.003
		c0.008,0,0.016-0.002,0.025-0.003C86.3,64.432,91,69.14,91,74.925z M60.903,52.577c0.001,0,0.002,0,0.003,0
		c0.002,0,0.004,0,0.006,0h7.74c4.804,0,8.808,3.461,9.666,8.019c-6.319,0.956-11.304,5.989-12.183,12.333h-1.779
		C63.378,65.872,57.322,60.416,50,60.416s-13.378,5.457-14.356,12.514h-1.779c-0.879-6.342-5.862-11.375-12.179-12.332
		c0.858-4.558,4.862-8.02,9.666-8.02H60.903z M19.484,64.417c0.009,0,0.017,0.003,0.026,0.003s0.017-0.003,0.026-0.003
		c5.783,0.014,10.484,4.722,10.484,10.508c0,5.795-4.714,10.509-10.509,10.509S9,80.72,9,74.925
		C9,69.139,13.701,64.431,19.484,64.417z"/><path d="M18.405 71.908c.353-.13.724-.195 1.104-.195 1.771 0 3.212 1.441 3.212 3.212 0 .516-.119 1.007-.352 1.461-.506.982-.12 2.188.862 2.694.293.151.606.223.915.223.725 0 1.425-.396 1.779-1.084.521-1.012.796-2.15.796-3.293 0-3.977-3.235-7.212-7.212-7.212-.852 0-1.688.148-2.483.44-1.037.381-1.569 1.53-1.188 2.567C16.22 71.757 17.371 72.289 18.405 71.908zM18.285 82.033c.115.02.229.029.341.029.956 0 1.801-.688 1.969-1.662.187-1.088-.543-2.123-1.632-2.31-1.544-.266-2.666-1.597-2.666-3.166 0-.12.006-.238.019-.354.12-1.098-.673-2.085-1.771-2.206-1.097-.118-2.085.672-2.206 1.771-.028.259-.042.521-.042.789C12.297 78.447 14.815 81.437 18.285 82.033z"/></svg>